<svg width="161" height="144" viewBox="0 0 161 144" fill="none" xmlns="http://www.w3.org/2000/svg">
<mask id="path-1-inside-1_20_16" fill="white">
<path d="M126.84 142.62C127.831 143.948 129.714 144.226 131.005 143.186C143.349 133.241 152.501 119.855 157.279 104.693C162.357 88.5754 162.235 71.2688 156.929 55.2249C151.624 39.1811 141.404 25.2138 127.717 15.302C114.031 5.39029 97.5728 0.0368185 80.6745 0.000189119C63.7762 -0.0364402 47.2948 5.24563 33.5658 15.0979C19.8367 24.9503 9.55628 38.8732 4.1811 54.8938C-1.19408 70.9145 -1.39138 88.2205 3.61715 104.36C8.32885 119.542 17.4228 132.968 29.7241 142.966C31.0098 144.012 32.8947 143.742 33.8911 142.418L48.3477 123.213C49.3441 121.889 49.0722 120.015 47.81 118.942C40.5351 112.756 35.148 104.616 32.3055 95.4565C29.1658 85.3396 29.2895 74.4913 32.659 64.4486C36.0284 54.4059 42.4728 45.6783 51.079 39.5023C59.6851 33.3263 70.0165 30.0152 80.6094 30.0381C91.2022 30.0611 101.519 33.417 110.099 39.6302C118.678 45.8434 125.084 54.599 128.41 64.6562C131.736 74.7133 131.813 85.5621 128.629 95.6653C125.747 104.813 120.325 112.929 113.023 119.083C111.756 120.151 111.476 122.024 112.467 123.352L126.84 142.62Z"/>
</mask>
<path d="M126.84 142.62C127.831 143.948 129.714 144.226 131.005 143.186C143.349 133.241 152.501 119.855 157.279 104.693C162.357 88.5754 162.235 71.2688 156.929 55.2249C151.624 39.1811 141.404 25.2138 127.717 15.302C114.031 5.39029 97.5728 0.0368185 80.6745 0.000189119C63.7762 -0.0364402 47.2948 5.24563 33.5658 15.0979C19.8367 24.9503 9.55628 38.8732 4.1811 54.8938C-1.19408 70.9145 -1.39138 88.2205 3.61715 104.36C8.32885 119.542 17.4228 132.968 29.7241 142.966C31.0098 144.012 32.8947 143.742 33.8911 142.418L48.3477 123.213C49.3441 121.889 49.0722 120.015 47.81 118.942C40.5351 112.756 35.148 104.616 32.3055 95.4565C29.1658 85.3396 29.2895 74.4913 32.659 64.4486C36.0284 54.4059 42.4728 45.6783 51.079 39.5023C59.6851 33.3263 70.0165 30.0152 80.6094 30.0381C91.2022 30.0611 101.519 33.417 110.099 39.6302C118.678 45.8434 125.084 54.599 128.41 64.6562C131.736 74.7133 131.813 85.5621 128.629 95.6653C125.747 104.813 120.325 112.929 113.023 119.083C111.756 120.151 111.476 122.024 112.467 123.352L126.84 142.62Z" fill="#A06CD5" stroke="#6247AA" stroke-width="2" mask="url(#path-1-inside-1_20_16)"/>
</svg>
