<svg width="121" height="37" viewBox="0 0 121 37" fill="none" xmlns="http://www.w3.org/2000/svg">
<path d="M28.001 28.1631C28.4292 28.7098 29.2156 28.8278 29.7478 28.3818C31.8906 26.5864 33.4849 24.2623 34.3474 21.6553C35.3369 18.6643 35.3131 15.4526 34.2793 12.4753C33.2455 9.49795 31.2541 6.90596 28.5874 5.06658C25.9207 3.2272 22.7139 2.23373 19.4213 2.22693C16.1287 2.22014 12.9173 3.20036 10.2423 5.02871C7.56722 6.85705 5.5641 9.44081 4.51676 12.4138C3.46942 15.3869 3.43098 18.5985 4.40688 21.5935C5.2575 24.204 6.84115 26.5346 8.97572 28.3389C9.50598 28.7871 10.2928 28.6725 10.7233 28.1278L12.6293 25.7163C13.0893 25.1343 12.9624 24.2913 12.4258 23.7789C11.3068 22.7104 10.4704 21.3951 9.99671 19.9413C9.38496 18.0638 9.40906 16.0507 10.0656 14.187C10.7221 12.3233 11.9778 10.7037 13.6547 9.55755C15.3316 8.41144 17.3446 7.79698 19.4086 7.80124C21.4726 7.8055 23.4828 8.42827 25.1545 9.58129C26.8261 10.7343 28.0744 12.3591 28.7224 14.2255C29.3705 16.0919 29.3854 18.1051 28.7651 19.98C28.2847 21.432 27.4423 22.744 26.3182 23.8079C25.7795 24.3179 25.6489 25.1602 26.1064 25.7442L28.001 28.1631Z" fill="#A06CD5"/>
<path d="M27.4742 33.3913C27.8252 34.0406 27.5657 34.8569 26.8807 35.1354C24.3976 36.1449 21.7119 36.6407 19.0023 36.5833C16.2926 36.526 13.6326 35.9171 11.1991 34.8034C10.5278 34.4962 10.3067 33.6699 10.6877 33.0361L12.0323 30.7989C12.3919 30.2006 13.1567 29.9978 13.796 30.2749C15.4668 30.9993 17.2785 31.3954 19.1224 31.4345C20.9664 31.4735 22.7949 31.1544 24.4977 30.5014C25.1493 30.2516 25.9039 30.4865 26.2352 31.0993L27.4742 33.3913Z" fill="#A06CD5"/>
<path d="M56.7204 11.3439V28.0219H50.9923L42.8093 18.2295V27.9981H37.8003V11.3201H43.5036L51.6866 21.1124V11.3439H56.7204Z" fill="#A06CD5"/>
<path d="M77.4122 22.7326V22.8041C77.4122 23.5427 77.2386 24.2574 76.9163 24.9246C76.5939 25.544 76.1724 26.092 75.602 26.5685C74.5357 27.4739 73.1223 27.9742 71.6593 27.9742H64.1954C63.4019 27.9742 62.6332 27.8313 61.9141 27.5454C61.1701 27.2595 60.5502 26.8544 60.0047 26.3303C59.0128 25.3772 58.4425 24.1145 58.4673 22.8041V22.5658L63.4763 22.5896V22.8041C63.4763 22.8279 63.5259 22.8756 63.5507 22.9232C63.6251 22.9709 63.8234 23.1376 64.2202 23.1376L71.6593 23.1615C72.0065 23.1615 72.2048 23.0185 72.2792 22.947C72.3536 22.8994 72.3784 22.8517 72.3784 22.8279V22.7326C72.3784 22.6611 72.18 22.4467 71.7585 22.399L63.6251 21.6604C62.2612 21.5413 60.9966 20.9933 60.0295 20.0879C59.0128 19.1349 58.4673 17.8722 58.4673 16.5379C58.4673 15.7993 58.6161 15.0846 58.9632 14.4174C59.2608 13.798 59.7071 13.25 60.2527 12.7735C61.3189 11.8681 62.7324 11.3678 64.1954 11.3678H71.6345C72.4528 11.3678 73.2215 11.5107 73.9406 11.7966C74.6845 12.0825 75.3293 12.4876 75.85 13.0117C76.8667 13.9647 77.4122 15.2275 77.3874 16.5379V16.7762L72.3784 16.7524V16.5379C72.3784 16.5141 72.3288 16.4664 72.304 16.4188C72.2296 16.3711 72.0312 16.1805 71.6345 16.1805L64.1954 16.2044C63.7242 16.2044 63.4763 16.4664 63.4763 16.5379C63.4763 16.5856 63.6746 16.8238 64.0962 16.8477L72.2296 17.5863C73.5935 17.7054 74.8829 18.2772 75.8252 19.1587C76.8419 20.1356 77.4122 21.3984 77.4122 22.7326Z" fill="#6247AA"/>
<path d="M79.1368 11.3201H84.1458V28.0219H79.1368V11.3201Z" fill="#A06CD5"/>
<path d="M85.2349 11.3201H102.593V16.1567H96.4184V28.0219H91.3846V16.1567H85.2349V11.3201Z" fill="#A06CD5"/>
<path d="M108.676 23.1615H121V27.9981H103.667V11.3439H120.975V16.1805H108.676V17.2527H121V22.0893H108.676V23.1615Z" fill="#A06CD5"/>
</svg>
